# xmcd
#
# Track frame offsets: 
#        150
#        21271
#        36407
#        52058
#        68519
#        85137
#        110593
#        124628
#        139360
#        154899
#        169521
#        184773
#        199859
#        212622
#        241603
#        256057
#        270192
#        288845
#
# Disc length: 4061 seconds
#
# Revision: 0
# Processed by: cddbd v1.5.2PL0 Copyright (c) Steve Scherf et al.
# Submitted via: ExactAudioCopy v1.0b3
#
DISCID=f70fdb12
DTITLE=Various Artist - Essential Club Charts 2007 - CD 2
DYEAR=1900
DGENRE=
TTITLE0=Bob Sinclair - Everbody Movin'
TTITLE1=Eddie Thoneick Feat. Berget Lewis - Deeper Love
TTITLE2=Rilod - Thriller (BB Law Radio Edit)
TTITLE3=Spiller - Sola (Radio Edit)
TTITLE4=Carnival - Not Over Yet (Carl Fath Edit)
TTITLE5=Disco Deejays - Upside Down (Club Mix)
TTITLE6=Le Weekend - Eternal (Jusqu' Au Matin)
TTITLE7=Bass-T - Check This!
TTITLE8=DJ Digress - Extreme Elektroshock (Oldschool Mix Edit)
TTITLE9=Coco Fay - This Is My Sound (Original Vocal Club Edit)
TTITLE10=Alex M. - I Can't Stand It (Single Edit)
TTITLE11=Picco - Back To Hawaii (Elektro Radio Edit)
TTITLE12=The Real Booty Babes - 4Ever (Radio Edit)
TTITLE13=Niels Van Gogh - Hate Me Baby (Club Mix)
TTITLE14=Discotronic - Tricky Disco (Single Edit)
TTITLE15=Ericke - The Beat Is Rockin' (Radio Edit)
TTITLE16=Madagascar5 - Ice Ice Baby
TTITLE17=Kate Ryan - Alive (Radio Edit)
EXTD=
EXTT0=
EXTT1=
EXTT2=
EXTT3=
EXTT4=
EXTT5=
EXTT6=
EXTT7=
EXTT8=
EXTT9=
EXTT10=
EXTT11=
EXTT12=
EXTT13=
EXTT14=
EXTT15=
EXTT16=
EXTT17=
PLAYORDER=
